<svg width="70" height="78" viewBox="0 0 70 78" fill="none" xmlns="http://www.w3.org/2000/svg">
<path d="M52.7992 39.2836L48.7321 35.1963L39.3702 44.6048L30.0084 54.0133L21.8743 45.8387L17.8072 49.926L30.0084 62.188L41.4038 50.7358L52.7992 39.2836ZM62.2762 8.20459H58.4393V0.492676H50.7657V8.20459H20.0709V0.492676H12.3973V8.20459H8.56042C4.30153 8.20459 0.925108 11.6749 0.925108 15.9165L0.88674 69.8999C0.88674 74.1414 4.30153 77.6118 8.56042 77.6118H62.2762C66.4967 77.6118 69.9499 74.1414 69.9499 69.8999V15.9165C69.9499 11.6749 66.4967 8.20459 62.2762 8.20459ZM62.2762 69.8999H8.56042V27.4844H62.2762V69.8999Z" fill="black"/>
</svg>
