<svg width="51" height="50" viewBox="0 0 51 50" fill="none" xmlns="http://www.w3.org/2000/svg">
<path fill-rule="evenodd" clip-rule="evenodd" d="M18.7453 5.95669C10.8835 8.70467 5.24414 16.1869 5.24414 24.9862C5.24414 26.2692 5.36403 27.5242 5.59322 28.7406L23.5602 23.9264L18.7453 5.95669ZM21.6435 5.18198L26.5874 23.6329L26.5991 23.6763C26.6491 23.862 26.7196 24.1239 26.7506 24.3641C26.7896 24.6668 26.7987 25.1456 26.517 25.6335C26.2353 26.1214 25.8161 26.3528 25.5345 26.4704C25.311 26.5637 25.049 26.6336 24.8631 26.6831L24.8631 26.6831L24.8197 26.6947L6.36801 31.6389C9.11615 39.5003 16.5982 45.1395 25.3974 45.1395C36.5277 45.1395 45.5506 36.1166 45.5506 24.9862C45.5506 13.8559 36.5277 4.83301 25.3974 4.83301C24.1146 4.83301 22.8598 4.95286 21.6435 5.18198Z" fill="#222222"/>
<path d="M19.4222 2.76209C19.1724 1.84817 19.0475 1.39121 18.6638 1.18883C18.28 0.986447 17.8553 1.13354 17.0059 1.42773C14.4807 2.30233 12.1078 3.56288 9.97658 5.16617C7.31988 7.16476 5.09071 9.6568 3.41635 12.5C1.742 15.3432 0.65525 18.4819 0.218156 21.7368C-0.130992 24.3369 -0.0601523 26.9704 0.424239 29.5413C0.590342 30.4228 0.673394 30.8636 1.04111 31.0961C1.40883 31.3286 1.86729 31.2082 2.7842 30.9673L23.5464 25.5132C24.4665 25.2715 24.9266 25.1506 25.1352 24.7894C25.3437 24.4281 25.2183 23.9693 24.9675 23.0516L19.4222 2.76209Z" fill="#FF0000"/>
</svg>
