<svg width="45" height="44" viewBox="0 0 45 44" fill="none" xmlns="http://www.w3.org/2000/svg">
<path d="M7.39062 30.4163C6.97641 30.4163 6.64062 30.7521 6.64062 31.1663C6.64062 31.5806 6.97641 31.9163 7.39062 31.9163V30.4163ZM36.7994 31.9163C37.2136 31.9163 37.5494 31.5806 37.5494 31.1663C37.5494 30.7521 37.2136 30.4163 36.7994 30.4163V31.9163ZM7.39062 21.2497C6.97641 21.2497 6.64062 21.5855 6.64062 21.9997C6.64062 22.4139 6.97641 22.7497 7.39062 22.7497V21.2497ZM36.7994 22.7497C37.2136 22.7497 37.5494 22.4139 37.5494 21.9997C37.5494 21.5855 37.2136 21.2497 36.7994 21.2497V22.7497ZM7.39062 12.083C6.97641 12.083 6.64062 12.4188 6.64062 12.833C6.64062 13.2472 6.97641 13.583 7.39062 13.583V12.083ZM36.7994 13.583C37.2136 13.583 37.5494 13.2472 37.5494 12.833C37.5494 12.4188 37.2136 12.083 36.7994 12.083V13.583ZM7.39062 31.9163H36.7994V30.4163H7.39062V31.9163ZM7.39062 22.7497H36.7994V21.2497H7.39062V22.7497ZM7.39062 13.583H36.7994V12.083H7.39062V13.583Z" fill="black"/>
</svg>
