<svg width="77" height="59" viewBox="0 0 77 59" fill="none" xmlns="http://www.w3.org/2000/svg">
<path d="M38.6368 41.4162C43.7834 41.4162 48.33 42.6537 52.0242 44.272C55.4342 45.7951 57.5812 49.2221 57.5812 52.9346V58.0751H19.6924V52.9664C19.6924 49.2221 21.8395 45.7951 25.2495 44.3037C28.9436 42.6537 33.4903 41.4162 38.6368 41.4162ZM13.3776 42.2095C16.8508 42.2095 19.6924 39.3537 19.6924 35.8632C19.6924 32.3728 16.8508 29.5169 13.3776 29.5169C9.9045 29.5169 7.06284 32.3728 7.06284 35.8632C7.06284 39.3537 9.9045 42.2095 13.3776 42.2095ZM16.9455 45.6999C15.7773 45.5095 14.609 45.3826 13.3776 45.3826C10.2518 45.3826 7.28386 46.049 4.60007 47.223C2.2636 48.2384 0.748047 50.5231 0.748047 53.0933V58.0751H14.9563V52.9664C14.9563 50.3327 15.6825 47.8576 16.9455 45.6999ZM63.896 42.2095C67.3692 42.2095 70.2108 39.3537 70.2108 35.8632C70.2108 32.3728 67.3692 29.5169 63.896 29.5169C60.4229 29.5169 57.5812 32.3728 57.5812 35.8632C57.5812 39.3537 60.4229 42.2095 63.896 42.2095ZM76.5256 53.0933C76.5256 50.5231 75.0101 48.2384 72.6736 47.223C69.9898 46.049 67.0219 45.3826 63.896 45.3826C62.6646 45.3826 61.4964 45.5095 60.3282 45.6999C61.5911 47.8576 62.3173 50.3327 62.3173 52.9664V58.0751H76.5256V53.0933ZM38.6368 19.9976C43.8781 19.9976 48.109 24.2496 48.109 29.5169C48.109 34.7843 43.8781 39.0363 38.6368 39.0363C33.3956 39.0363 29.1646 34.7843 29.1646 29.5169C29.1646 24.2496 33.3956 19.9976 38.6368 19.9976Z" fill="black"/>
<rect x="48.7051" y="9.39355" width="20.1434" height="3.85596" fill="#FF0000"/>
<rect x="56.377" y="0.717773" width="3.83684" height="20.2438" fill="#FF0000"/>
</svg>
